<?xml version="1.0" encoding="UTF-8" standalone="no"?>
<!-- Generator: Adobe Illustrator 19.0.0, SVG Export Plug-In . SVG Version: 6.00 Build 0)  -->

<svg
   xmlns:dc="http://purl.org/dc/elements/1.1/"
   xmlns:cc="http://creativecommons.org/ns#"
   xmlns:rdf="http://www.w3.org/1999/02/22-rdf-syntax-ns#"
   xmlns:svg="http://www.w3.org/2000/svg"
   xmlns="http://www.w3.org/2000/svg"
   xmlns:sodipodi="http://sodipodi.sourceforge.net/DTD/sodipodi-0.dtd"
   xmlns:inkscape="http://www.inkscape.org/namespaces/inkscape"
   version="1.1"
   id="Layer_1"
   x="0px"
   y="0px"
   viewBox="0 0 83.025841 112.60444"
   enable-background="new 0 0 83 260.1"
   xml:space="preserve"
   sodipodi:docname="balloon.svg"
   width="83.025841"
   height="112.60445"
   inkscape:version="0.92.4 (5da689c313, 2019-01-14)"
   inkscape:export-filename="C:\Users\trains\ubuntu\VSCodeProjects\PhysicsFun\sprites\balloon.png"
   inkscape:export-xdpi="83.549088"
   inkscape:export-ydpi="83.549088"><metadata
   id="metadata13"><rdf:RDF><cc:Work
       rdf:about=""><dc:format>image/svg+xml</dc:format><dc:type
         rdf:resource="http://purl.org/dc/dcmitype/StillImage" /><dc:title /></cc:Work></rdf:RDF></metadata><defs
   id="defs11">
	
	

		
		
	</defs><sodipodi:namedview
   pagecolor="#ffffff"
   bordercolor="#666666"
   borderopacity="1"
   objecttolerance="10"
   gridtolerance="10"
   guidetolerance="10"
   inkscape:pageopacity="0"
   inkscape:pageshadow="2"
   inkscape:window-width="1920"
   inkscape:window-height="1017"
   id="namedview9"
   showgrid="false"
   fit-margin-top="0"
   fit-margin-left="0"
   fit-margin-right="0"
   fit-margin-bottom="0"
   inkscape:zoom="2.0848225"
   inkscape:cx="-42.653984"
   inkscape:cy="-17.345691"
   inkscape:window-x="-8"
   inkscape:window-y="-8"
   inkscape:window-maximized="1"
   inkscape:current-layer="Layer_1" />
<path
   id="XMLID_1_"
   stroke-miterlimit="10"
   d="m 40.625844,111.70013 c 1.1,0.7 2.6,0.4 5.6,-0.2 2.3,-0.5 4.2,-1.2 5.4,-1.7 -0.2,-2.7 -6.2,-3.5 -6.8,-6.2 6.2,-3.1 19.5,-10.899995 28.8,-26.599995 3.1,-5.3 8.8,-15.2 8.9,-29 0,-2.4 -0.3,-29.4 -21,-41.9 -7.9,-4.8 -15.7,-5.60000005 -19.6,-5.60000005 -1.2,0 -21.4,-0.2 -33.6,16.10000005 -8.10000003,10.7 -7.90000003,22.4 -7.80000003,29.4 0.2,14.3 5.90000003,24.6 8.60000003,29.4 4.5,7.9 7.6,13.6 14.4,17.7 6.8,4.2 13.8,4.7 15.5,10.299995 1.2,3.5 -0.5,6.9 1.6,8.3 z"
   inkscape:connector-curvature="0"
   style="fill:#8af22c;fill-opacity:1;stroke:#62c920;stroke-miterlimit:10;stroke-opacity:1" />

</svg>